<?xml version="1.0" encoding="iso-8859-1"?>
<!-- Generator: Adobe Illustrator 17.0.2, SVG Export Plug-In . SVG Version: 6.00 Build 0)  -->
<!DOCTYPE svg PUBLIC "-//W3C//DTD SVG 1.1//EN" "http://www.w3.org/Graphics/SVG/1.1/DTD/svg11.dtd">
<svg version="1.1" id="&#x5716;&#x5C64;_1" xmlns="http://www.w3.org/2000/svg" xmlns:xlink="http://www.w3.org/1999/xlink" x="0px"
	 y="0px" width="60px" height="60px" viewBox="0 0 60 60" style="enable-background:new 0 0 60 60;" xml:space="preserve">
<g>
	<path style="fill:#FFC486;" d="M1.6,60l-0.1-0.5c0.5-3.4,1.1-6.9,1.9-10.3c0.8-3.4,3.2-7.3,7.2-11.7c0.5-1.6,0.9-3.1,1.4-4.7
		c0.5-1.6,1.2-3.1,2.1-4.4c0.7-0.6,1.6-0.9,2.5-0.7c1,0.4,2,0.9,2.9,1.5l5.5,6.2c4.1-0.3,8.9-0.3,14.4,0c0.7-0.9,1.3-1.8,1.9-2.7
		c0.5-0.9,1.8-2.3,3.7-4.2c0.7-0.6,1.5-0.9,2.5-0.7l1.2,0.6l0.6,0.6c0.8,1.5,1.4,3,1.8,4.6c0.4,1.6,0.7,3.2,1.1,4.9
		c1.9,2.8,3.2,5.6,4,8.4c0.8,2.8,1.3,4.9,1.6,6.4c0.3,1.5,0.5,3.7,0.7,6.7h-4.6c0-3.4-0.5-6.6-1.5-9.7c-1-3.1-2.3-6.1-3.9-9
		l-0.9-1.1c-0.2-1-0.3-2.1-0.4-3.1s-0.4-2.1-0.8-3l-3.8,5.3c-0.9,0.6-2,0.9-3.2,0.7c-5.4-0.4-10.6-0.4-15.6,0
		c-0.6-0.1-1.2-0.3-1.6-0.7c-0.7-1.2-1.5-2.3-2.3-3.4c-0.9-1.1-1.9-2-3-2.8c-0.4,1.3-0.8,2.5-1.1,3.8s-0.8,2.5-1.4,3.7
		c-1.3,0.7-2.3,1.6-3,2.7c-0.8,1.1-1.5,2.5-2.2,4.1S7.7,51,7.3,53.3S6.4,57.7,6.1,60H1.6z M21,56c-0.8-0.1-1.6-0.5-2.3-1.3
		c-0.8-0.8-1.1-1.8-1-2.9c0.1-1.1,0.6-2.1,1.6-3s2-1.1,3.3-0.8c1.2,0.4,2.2,0.9,3,1.7c0.7,0.8,0.9,1.8,0.5,3.1
		c-0.4,1.3-0.9,2.1-1.6,2.6C23.7,55.8,22.6,56,21,56z M30.6,27.8C28.8,27.6,27,27,25.5,26c-1.6-1-2.9-2.2-4-3.5
		c-1.1-1.3-1.9-2.7-2.2-4.1c-0.3-1.4-0.3-3-0.1-4.6c0.3-1.6,0.9-3,2-4c1.1-1.1,2.1-1.8,3.3-2.1c1.1-0.4,2.3-0.4,3.6-0.1
		c1.3,0.3,2.3,1.1,3,2.5c1.1-0.8,2.2-1.2,3.3-1.4c1.1-0.2,2.3-0.1,3.6,0.1c1.3,0.2,2.4,0.9,3.3,2.1c0.9,1.2,1.4,2.5,1.6,3.8
		c0.2,1.3,0.2,2.7,0,4.1c-0.2,1.4-0.6,2.6-1.3,3.6s-1.5,2-2.4,2.9c-0.9,0.9-2,1.5-3.2,1.9C34.9,27.5,33.1,27.8,30.6,27.8z
		 M35.6,23.7c0.5-0.2,1.2-0.7,2-1.5c0.8-0.8,1.4-1.8,1.8-3c0.4-1.2,0.5-2.5,0.2-3.8c-0.2-1.3-0.8-2.2-1.6-2.8
		c-0.8-0.5-1.6-0.8-2.4-0.8c-0.8,0-1.4,0.4-1.9,1.2c-0.5,0.8-1,1.7-1.5,2.9c-0.4,0.3-0.9,0.4-1.5,0.4c-0.6-0.3-1.1-0.8-1.3-1.5
		c-0.3-1.5-0.8-2.5-1.5-3.1c-0.7-0.6-1.3-0.9-2-0.9s-1.5,0.5-2.4,1.6c-1,1.1-1.3,2.5-1,4.2c0.3,1.7,0.9,3,1.9,3.9
		c0.9,0.9,1.8,1.6,2.6,2.2c0.8,0.5,1.7,1,2.7,1.2c1,0.3,2,0.4,3.2,0.3C34,24.2,34.9,24,35.6,23.7z M38.8,55.9c-1-0.3-2-0.9-2.9-1.7
		s-1.4-1.8-1.3-3c0.1-1.2,0.6-2.2,1.5-3c0.9-0.8,1.9-1.1,3-0.9c1.1,0.2,2,0.7,2.8,1.6c0.8,0.8,1.1,1.9,0.8,3.1
		c-0.2,1.2-0.7,2.2-1.3,2.8C40.7,55.5,39.9,55.8,38.8,55.9z"/>
</g>
<g>
</g>
<g>
</g>
<g>
</g>
<g>
</g>
<g>
</g>
<g>
</g>
<g>
</g>
<g>
</g>
<g>
</g>
<g>
</g>
<g>
</g>
<g>
</g>
<g>
</g>
<g>
</g>
<g>
</g>
</svg>
