<?xml version="1.0" encoding="iso-8859-1"?>
<!-- Generator: Adobe Illustrator 17.0.2, SVG Export Plug-In . SVG Version: 6.00 Build 0)  -->
<!DOCTYPE svg PUBLIC "-//W3C//DTD SVG 1.1//EN" "http://www.w3.org/Graphics/SVG/1.1/DTD/svg11.dtd">
<svg version="1.1" id="&#x5716;&#x5C64;_1" xmlns="http://www.w3.org/2000/svg" xmlns:xlink="http://www.w3.org/1999/xlink" x="0px"
	 y="0px" width="108.6px" height="86px" viewBox="0 0 108.6 86" style="enable-background:new 0 0 108.6 86;" xml:space="preserve">
<path style="fill:#FFB064;" d="M0,12.2h5.9v3.9H6c0.6-1.2,1.4-2.2,2.7-3.1c1.2-0.9,2.9-1.4,5-1.4c3.9,0,6.5,1.5,7.8,4.6
	c0.9-1.6,2-2.8,3.4-3.5c1.3-0.7,3-1.1,4.8-1.1c1.7,0,3.1,0.3,4.2,0.8c1.1,0.6,2.1,1.3,2.8,2.3c0.7,1,1.2,2.1,1.5,3.4
	c0.3,1.3,0.5,2.7,0.5,4.2v14.8h-6.2V23c0-0.8-0.1-1.5-0.2-2.2c-0.1-0.7-0.4-1.3-0.7-1.9c-0.3-0.5-0.8-1-1.4-1.3
	c-0.6-0.3-1.3-0.5-2.3-0.5c-1,0-1.8,0.2-2.5,0.5c-0.7,0.4-1.2,0.8-1.7,1.5c-0.4,0.6-0.7,1.3-0.9,2.1c-0.2,0.8-0.3,1.6-0.3,2.4v13.5
	h-6.2V22.3c0-1.6-0.3-2.8-1-3.7c-0.7-0.9-1.7-1.4-3.3-1.4c-1,0-1.9,0.2-2.6,0.5C8.6,18,8,18.5,7.6,19.1c-0.5,0.6-0.8,1.3-1,2
	c-0.2,0.8-0.3,1.6-0.3,2.4v13.6H0V12.2z"/>
<path style="fill:#FFB064;" d="M61,33.7h-0.2c-0.9,1.4-2,2.4-3.4,3.1c-1.4,0.6-2.9,1-4.6,1c-1.1,0-2.3-0.2-3.3-0.5
	c-1.1-0.3-2.1-0.8-2.9-1.4c-0.8-0.6-1.5-1.4-2-2.3c-0.5-0.9-0.8-2-0.8-3.3c0-1.3,0.2-2.5,0.7-3.5c0.5-1,1.1-1.7,1.9-2.4
	c0.8-0.6,1.8-1.1,2.8-1.5c1.1-0.4,2.2-0.7,3.3-0.9c1.2-0.2,2.3-0.3,3.5-0.4c1.2-0.1,2.3-0.1,3.3-0.1H61v-0.7c0-1.6-0.5-2.7-1.6-3.5
	c-1.1-0.8-2.4-1.2-4.1-1.2c-1.3,0-2.5,0.2-3.7,0.7c-1.1,0.5-2.1,1.1-3,1.9l-3.3-3.3c1.4-1.4,3-2.4,4.9-3.1c1.9-0.6,3.8-0.9,5.7-0.9
	c1.8,0,3.3,0.2,4.5,0.6c1.2,0.4,2.2,0.9,3,1.5c0.8,0.6,1.4,1.3,1.8,2.2c0.4,0.8,0.7,1.6,0.9,2.5c0.2,0.8,0.3,1.6,0.3,2.4
	c0,0.8,0.1,1.5,0.1,2v14.3H61V33.7z M60.6,25.9h-1.3c-0.9,0-1.8,0-2.9,0.1c-1.1,0.1-2.1,0.2-3,0.5c-1,0.3-1.8,0.6-2.4,1.1
	c-0.7,0.5-1,1.2-1,2.1c0,0.6,0.1,1.1,0.4,1.5c0.3,0.4,0.6,0.7,1,1c0.4,0.3,0.9,0.5,1.4,0.6c0.5,0.1,1,0.2,1.6,0.2
	c2.1,0,3.7-0.5,4.7-1.5c1-1,1.5-2.4,1.5-4.2V25.9z"/>
<path style="fill:#FFB064;" d="M79.6,12.2v26.4c0,1.6-0.1,3-0.3,4.3c-0.2,1.3-0.6,2.5-1.2,3.5c-0.6,1-1.5,1.8-2.6,2.3
	s-2.5,0.8-4.3,0.8c-0.6,0-1.2,0-1.7-0.1s-1.1-0.2-1.7-0.4l0.5-5.4c0.3,0.1,0.7,0.1,1,0.2c0.3,0.1,0.6,0.1,1,0.1
	c0.8,0,1.4-0.2,1.8-0.5c0.4-0.3,0.7-0.8,0.9-1.3c0.2-0.5,0.3-1.1,0.3-1.7c0-0.6,0.1-1.2,0.1-1.8V12.2H79.6z M72.5,3.7
	c0-1,0.4-1.9,1.1-2.6C74.4,0.4,75.3,0,76.4,0c1.1,0,2.1,0.4,2.9,1.1c0.8,0.7,1.2,1.6,1.2,2.7c0,1.1-0.4,2-1.2,2.7
	c-0.8,0.7-1.7,1.1-2.9,1.1c-1.1,0-2.1-0.4-2.8-1.1C72.9,5.6,72.5,4.7,72.5,3.7z"/>
<path style="fill:#FFB064;" d="M86,3.7c0-1,0.4-1.9,1.1-2.6C87.8,0.4,88.8,0,89.9,0c1.1,0,2.1,0.4,2.9,1.1C93.6,1.8,94,2.7,94,3.7
	c0,1.1-0.4,2-1.2,2.7c-0.8,0.7-1.7,1.1-2.9,1.1c-1.1,0-2.1-0.4-2.8-1.1C86.4,5.6,86,4.7,86,3.7z M86.9,12.2h6.2v24.9h-6.2V12.2z"/>
<path style="fill:#FFB064;" d="M100.3,33.5c0-1.1,0.4-2.1,1.2-2.9c0.8-0.8,1.8-1.2,2.9-1.2c1.1,0,2.1,0.4,2.9,1.1
	c0.8,0.8,1.2,1.7,1.2,2.8c0,1.1-0.4,2.1-1.2,2.9c-0.8,0.8-1.8,1.2-2.9,1.2c-0.6,0-1.1-0.1-1.6-0.3c-0.5-0.2-0.9-0.5-1.3-0.8
	c-0.4-0.3-0.7-0.8-0.9-1.2C100.4,34.5,100.3,34,100.3,33.5z"/>
<path style="fill:#FFB064;" d="M0,60.5h5.9v3.9H6c0.6-1.2,1.4-2.2,2.7-3.1c1.2-0.9,2.9-1.4,5-1.4c3.9,0,6.5,1.5,7.8,4.6
	c0.9-1.6,2-2.8,3.4-3.5c1.3-0.7,3-1.1,4.8-1.1c1.7,0,3.1,0.3,4.2,0.8c1.1,0.6,2.1,1.3,2.8,2.3c0.7,1,1.2,2.1,1.5,3.4
	c0.3,1.3,0.5,2.7,0.5,4.2v14.8h-6.2V71.3c0-0.8-0.1-1.5-0.2-2.2c-0.1-0.7-0.4-1.3-0.7-1.9c-0.3-0.5-0.8-1-1.4-1.3
	c-0.6-0.3-1.3-0.5-2.3-0.5c-1,0-1.8,0.2-2.5,0.5c-0.7,0.4-1.2,0.8-1.7,1.5c-0.4,0.6-0.7,1.3-0.9,2.1c-0.2,0.8-0.3,1.6-0.3,2.4v13.5
	h-6.2V70.5c0-1.6-0.3-2.8-1-3.7c-0.7-0.9-1.7-1.4-3.3-1.4c-1,0-1.9,0.2-2.6,0.5c-0.7,0.3-1.3,0.8-1.8,1.4c-0.5,0.6-0.8,1.3-1,2
	c-0.2,0.8-0.3,1.6-0.3,2.4v13.6H0V60.5z"/>
<path style="fill:#FFB064;" d="M44.2,72.9c0-2,0.4-3.8,1.1-5.4c0.7-1.6,1.7-3,2.9-4.1c1.2-1.1,2.6-2,4.3-2.6
	c1.7-0.6,3.4-0.9,5.3-0.9s3.6,0.3,5.3,0.9c1.7,0.6,3.1,1.5,4.3,2.6c1.2,1.1,2.2,2.5,2.9,4.1c0.7,1.6,1.1,3.4,1.1,5.4
	c0,2-0.4,3.8-1.1,5.4c-0.7,1.6-1.7,3-2.9,4.1c-1.2,1.1-2.6,2-4.3,2.6c-1.7,0.6-3.4,0.9-5.3,0.9s-3.6-0.3-5.3-0.9
	c-1.7-0.6-3.1-1.5-4.3-2.6c-1.2-1.1-2.2-2.5-2.9-4.1C44.5,76.7,44.2,74.9,44.2,72.9z M50.4,72.9c0,1,0.2,1.9,0.5,2.8
	c0.3,0.9,0.8,1.7,1.5,2.4c0.6,0.7,1.4,1.2,2.3,1.7c0.9,0.4,1.9,0.6,3.1,0.6c1.1,0,2.2-0.2,3.1-0.6c0.9-0.4,1.7-1,2.3-1.7
	c0.6-0.7,1.1-1.5,1.5-2.4c0.3-0.9,0.5-1.8,0.5-2.8s-0.2-1.9-0.5-2.8c-0.3-0.9-0.8-1.7-1.5-2.4c-0.6-0.7-1.4-1.2-2.3-1.7
	c-0.9-0.4-1.9-0.6-3.1-0.6c-1.1,0-2.2,0.2-3.1,0.6c-0.9,0.4-1.7,1-2.3,1.7c-0.6,0.7-1.1,1.5-1.5,2.4C50.6,71,50.4,72,50.4,72.9z"/>
<path style="fill:#FFB064;" d="M82,75.1c0.2,1.9,0.9,3.3,2.2,4.4c1.2,1,2.8,1.6,4.5,1.6c1.6,0,2.9-0.3,3.9-1c1.1-0.6,2-1.4,2.8-2.4
	l4.5,3.4c-1.5,1.8-3.1,3.1-4.9,3.8c-1.8,0.8-3.7,1.1-5.7,1.1c-1.9,0-3.6-0.3-5.3-0.9c-1.7-0.6-3.1-1.5-4.3-2.6
	c-1.2-1.1-2.2-2.5-2.9-4.1c-0.7-1.6-1.1-3.4-1.1-5.4c0-2,0.4-3.8,1.1-5.4c0.7-1.6,1.7-3,2.9-4.1c1.2-1.1,2.6-2,4.3-2.6
	c1.7-0.6,3.4-0.9,5.3-0.9c1.7,0,3.3,0.3,4.7,0.9c1.4,0.6,2.7,1.5,3.7,2.6c1,1.1,1.8,2.6,2.4,4.2c0.6,1.7,0.9,3.6,0.9,5.8v1.7H82z
	 M94.8,70.4c0-1.8-0.6-3.3-1.7-4.3c-1.1-1.1-2.6-1.6-4.6-1.6c-1.9,0-3.3,0.5-4.4,1.6c-1.1,1.1-1.8,2.5-2,4.3H94.8z"/>
</svg>
