<?xml version="1.0" encoding="iso-8859-1"?>
<!-- Generator: Adobe Illustrator 17.0.2, SVG Export Plug-In . SVG Version: 6.00 Build 0)  -->
<!DOCTYPE svg PUBLIC "-//W3C//DTD SVG 1.1//EN" "http://www.w3.org/Graphics/SVG/1.1/DTD/svg11.dtd">
<svg version="1.1" id="&#x5716;&#x5C64;_1" xmlns="http://www.w3.org/2000/svg" xmlns:xlink="http://www.w3.org/1999/xlink" x="0px"
	 y="0px" width="60px" height="60px" viewBox="0 0 60 60" style="enable-background:new 0 0 60 60;" xml:space="preserve">
<g>
	<path style="fill:#FFC486;" d="M25.5,57.5c-2.2-0.3-4.4-0.6-6.5-0.9c-2.1-0.3-4.4-1.4-6.7-3.2s-3.8-3.5-4.6-4.9
		c-0.8-1.4-1.6-3-2.6-4.8c-0.9-1.7-1.7-3.7-2.2-5.9c-0.5-2.2-0.7-4.3-0.6-6.3c0.1-2,0.6-3.5,1.6-4.6c1-1.1,2.2-1.6,3.5-1.6
		c-0.6-1.6-1.1-3.1-1.5-4.6c-0.4-1.5-0.5-3-0.4-4.5c0.2-1.5,0.7-2.7,1.5-3.5c0.9-0.8,2-1.4,3.4-1.8c1.4-0.4,3.3,0.2,5.5,1.6
		c0.4-1,0.8-2,1.3-3c0.5-1,1.3-1.9,2.5-2.8c1.2-0.9,2.6-1.1,4.3-0.8s2.9,1.1,3.9,2.3c1,1.2,1.8,2.7,2.3,4.4s1,3.5,1.1,5.4
		c1-0.7,2-1.3,3-1.8c1-0.5,2.1-0.8,3.4-1c1.3-0.1,2.7-0.1,4,0c1.4,0.1,2.8,0.5,4.2,1.1c1.4,0.6,2.8,1.6,4.1,3.2s2.3,3.2,3,4.7
		c0.6,1.6,0.8,3.1,0.6,4.5c-0.2,1.4-0.5,2.6-0.9,3.6c-0.4,0.9-1,2-1.8,3c0.8,1.3,1.3,2.6,1.5,4.1c0.2,1.5,0.2,3.2,0.1,5
		c-0.2,1.9-0.8,3.5-1.9,4.8c-1.1,1.3-2.3,2.6-3.6,3.7C46,53.9,43.9,55,40.9,56c-3,1-5.8,1.5-8.7,1.5C29.4,57.5,27.2,57.5,25.5,57.5z
		 M40.4,51.3c1.1-0.6,2.2-1.2,3.4-1.9c1.2-0.6,2.1-1.4,3-2.2c0.8-0.9,1.3-1.8,1.5-2.8c0.2-1,0.2-2.1,0.2-3.2c0-1.1-0.3-2-0.9-2.7
		c-0.5,1.3-1.3,2.5-2.4,3.6s-2.4,1.7-3.8,1.7c-1.4,0-2.7-0.3-3.6-0.6c-1-0.4-1.9-1.1-2.8-2c-0.9-0.9-1.4-2.1-1.6-3.4
		c-0.2-1.3-0.3-2.8-0.2-4.3c0.1-1.6,0.8-3.1,2.1-4.5c1.2-1.4,2.8-2.1,4.5-1.9c1.8,0.2,3.2,0.8,4.4,1.9c1.2,1.1,2.2,1.9,2.9,2.3
		c0.8,0.4,1.4,0.2,1.9-0.6c0.5-0.9,0.7-1.9,0.5-2.9c-0.2-1.1-0.4-2-0.6-2.8c-0.3-0.8-1-1.7-2.3-3c-1.3-1.2-2.5-2-3.9-2.2
		c-1.3-0.3-2.8-0.2-4.3,0.1s-2.7,1-3.6,2.1c-0.9,1-1.5,2-1.9,3c-0.4,1-0.7,2-1.1,3c-0.5,0.5-1.3,0.7-2.1,0.6l-1.2-0.6
		c-0.8-2.7-1.2-5.5-1.2-8.5c0-3-0.3-5.1-0.7-6.4c-0.4-1.3-1.1-2.1-1.9-2.4c-0.8-0.3-1.6-0.3-2.3,0.2c-0.7,0.4-1.3,1.3-1.6,2.5
		s-0.4,2.6-0.2,4c0.2,1.4,0.4,3.1,0.5,4.9l-0.6,1.2c-0.5,0.5-1.3,0.7-2.1,0.6l-1.2-0.6c-0.5-1.2-0.9-2.4-1.4-3.6
		c-0.5-1.2-0.9-2.1-1.4-2.8c-0.5-0.6-1.1-1-1.9-1.2c-0.8-0.2-1.3,0.1-1.7,0.8c-0.3,0.7-0.4,1.7-0.1,2.8c0.3,1.2,0.7,2.5,1.3,3.9
		c0.6,1.4,1.9,3.5,3.8,6.3c0.9,0.9,1.2,2.1,1.2,3.4l-0.6,1.2c-0.6,0.5-1.4,0.7-2.3,0.6L12.5,34c-1.1-1.6-2.3-3-3.8-4.2
		c-1.1-0.1-1.7,0.1-1.9,0.6c-0.2,0.5-0.2,1.7,0,3.7c0.2,2,0.9,4.3,2.1,6.9c1.2,2.6,2.6,4.9,4.3,6.8c1.7,1.9,3.1,3.1,4.2,3.5
		c1.1,0.4,2.4,0.7,3.9,0.9c1.5,0.2,3,0.4,4.7,0.6c1.6,0.2,3.3,0.3,5.1,0.2c1.8-0.1,3.4-0.3,4.9-0.6C37.5,52.1,39,51.7,40.4,51.3z
		 M41.3,39.2c0.7-0.4,1.2-1,1.5-1.8c0.3-0.8,0.7-1.6,1.1-2.3c-1.4-2.1-2.6-3.1-3.7-3.2c-1.1,0-1.8,0.4-2.3,1.4
		c-0.4,1-0.6,1.9-0.4,2.8c0.2,0.9,0.6,1.7,1.2,2.3C39.4,39,40.2,39.2,41.3,39.2z M39.6,11.9c-0.5-0.2-0.9-0.6-1.2-1.2l-0.1-2.2
		c0-2,0.3-3.9,0.9-5.6c0.4-0.3,0.9-0.4,1.5-0.4c0.5,0.2,0.9,0.6,1.2,1.2c0,3.9-0.3,6.5-0.8,7.9C40.7,11.9,40.2,12,39.6,11.9z
		 M46.4,12.4c-0.5-0.2-0.9-0.6-1.2-1.2l-0.1-0.7c0.3-1.1,0.7-2.2,1.1-3.2c0.4-1.1,0.8-2.1,1.3-3.1c0.4-0.3,0.9-0.4,1.5-0.4
		c0.5,0.2,0.9,0.6,1.2,1.2v1.4c-0.3,0.9-0.6,1.9-1,2.9c-0.4,1-0.8,1.9-1.2,2.8C47.5,12.3,47,12.5,46.4,12.4z M50.6,16.5l-1.3-0.7
		c-0.3-0.4-0.4-0.9-0.4-1.6c0.6-1.1,1.6-2,2.9-2.6c1.3-0.7,2.8-1,4.6-1.1c0.5,0.2,0.9,0.6,1.2,1.2v1.1c-0.2,0.5-0.6,0.9-1.2,1.2
		c-1.1,0.1-2.1,0.4-3,1C52.5,15.5,51.6,16.1,50.6,16.5z"/>
</g>
<g>
</g>
<g>
</g>
<g>
</g>
<g>
</g>
<g>
</g>
<g>
</g>
<g>
</g>
<g>
</g>
<g>
</g>
<g>
</g>
<g>
</g>
<g>
</g>
<g>
</g>
<g>
</g>
<g>
</g>
</svg>
