<?xml version="1.0" encoding="iso-8859-1"?>
<!-- Generator: Adobe Illustrator 17.0.2, SVG Export Plug-In . SVG Version: 6.00 Build 0)  -->
<!DOCTYPE svg PUBLIC "-//W3C//DTD SVG 1.1//EN" "http://www.w3.org/Graphics/SVG/1.1/DTD/svg11.dtd">
<svg version="1.1" id="&#x5716;&#x5C64;_1" xmlns="http://www.w3.org/2000/svg" xmlns:xlink="http://www.w3.org/1999/xlink" x="0px"
	 y="0px" width="60px" height="60px" viewBox="0 0 60 60" style="enable-background:new 0 0 60 60;" xml:space="preserve">
<g>
	<path style="fill:#FFC486;" d="M2.2,60v-0.1l-0.1-1.1c0.4-3.1,1.1-6.1,2.2-9c1.1-2.9,3.1-5.5,6.3-8.1c-0.4-1.6-0.7-3.1-0.9-4.5
		C9.5,36,9.3,34.2,9.2,32S9.1,27.7,9.3,26c0.2-1.7,0.5-3.4,1.1-5.1c0.6-1.7,1.6-3.2,3-4.4c1.4-1.2,3.3-1.6,5.7-1
		c2.3,0.5,4.3,2,5.8,4.3c1.5,2.3,2.4,5.1,2.7,8.3c0.3,3.2,0.4,6.4,0.5,9.6c2.7-0.1,5-0.2,6.8-0.2c-0.2-2.3-0.3-4-0.3-5.3
		c0-1.3,0-2.8,0.1-4.5c0.1-1.7,0.4-3.5,1.1-5.4c0.6-1.9,1.5-3.5,2.6-4.6c1.1-1.2,2.2-1.9,3.3-2.2c1.1-0.3,2.3-0.4,3.5-0.2
		s2.5,1,3.9,2.4c1.4,1.4,2.3,3.2,2.9,5.3c0.5,2.1,0.7,4.2,0.5,6.4c-0.2,2.1-0.5,4.1-0.9,5.9s-0.8,3.6-1.3,5.3c3.1,3.2,5.1,6.5,6,9.7
		c0.9,3.2,1.5,6.5,1.7,9.8h-4.6c-0.2-2.8-0.7-5.5-1.5-8.2c-0.7-2.7-1.8-4.6-3.2-5.9c-1.4-1.3-2.5-2.1-3.3-2.5
		c-0.5-0.6-0.7-1.4-0.6-2.2c1.1-2.4,2-4.9,2.5-7.5c0.5-2.6,0.7-4.8,0.6-6.7c-0.1-1.9-0.4-3.4-0.8-4.3c-0.4-1-1-1.7-1.6-2.3
		c-0.6-0.5-1.3-0.8-2-0.6c-0.7,0.1-1.4,0.7-2.2,1.8c-0.8,1-1.3,2.6-1.7,4.6c-0.4,2-0.5,3.9-0.4,5.7s0.3,3.3,0.4,4.6
		c0.2,1.3,0.3,2.6,0.5,3.8l-0.6,1.2c-0.5,0.4-1.1,0.6-1.8,0.7c-4.8,0-7.8,0.1-8.9,0.3c-1.1,0.2-2.2,0.4-3.3,0.5l-1.2-0.6
		c-0.7-3.7-1-7.5-1-11.4c0-3.9-0.4-6.6-1.2-7.9c-0.8-1.3-1.7-2.1-2.5-2.6c-0.8-0.4-1.6-0.5-2.3-0.2c-0.7,0.3-1.2,0.6-1.5,1.1
		c-0.2,0.4-0.6,1.2-1,2.3c-0.4,1.1-0.7,2.4-0.9,3.9c-0.1,1.5-0.2,3.3-0.1,5.3c0.1,2,0.4,3.8,0.8,5.4c0.4,1.6,0.7,3.3,0.8,5.1
		l-0.6,1.2c-1.1,0.7-2.1,1.5-3.1,2.5c-1,1-1.8,2.1-2.5,3.4s-1.3,2.8-1.6,4.5c-0.4,1.7-0.6,3.4-0.7,5.2H2.2z M21.3,57.2
		c-0.9-0.1-1.7-0.5-2.4-1.2c-0.7-0.7-1.1-1.6-1-2.7c0.1-1.1,0.6-2,1.5-2.8c0.9-0.8,2-1.1,3.2-0.9c1.2,0.2,2.2,0.7,2.9,1.5
		c0.7,0.8,1,1.7,0.9,2.7c-0.2,1-0.6,1.9-1.4,2.6C24.1,57.1,22.9,57.4,21.3,57.2z M29.7,20.3c-1.2-0.3-2.3-0.7-3.3-1.2
		s-2.1-1.2-3-2.3c-1-1.1-1.8-2.3-2.6-3.7c-0.7-1.4-1.1-2.8-1-4.3c0.1-1.5,0.5-2.7,1.4-3.6C22,4.4,22.9,3.9,24,3.6
		c1-0.2,2.1-0.3,3.2-0.1c1.1,0.2,2.1,0.6,2.9,1.1c1.6-0.9,3.3-1.2,5.1-0.7c1.8,0.5,3.1,1.4,3.8,2.9c0.7,1.5,0.9,3,0.7,4.5
		c-0.2,1.5-0.6,2.8-1.3,3.9c-0.7,1.1-1.5,2.1-2.5,3.1c-0.9,0.5-1.9,1-2.9,1.5C32,20.2,30.9,20.4,29.7,20.3z M32.1,16.5
		c0.8-0.4,1.5-0.9,2.1-1.5c0.6-0.6,1.2-1.4,1.6-2.5s0.6-2,0.5-2.9c-0.1-0.9-0.4-1.5-0.9-2.1c-0.5-0.5-1.2-0.7-2-0.5
		c-0.8,0.2-1.3,0.5-1.5,1c-0.2,0.5-0.6,1-1,1.5c-0.5,0.3-1,0.4-1.6,0.4c-0.5-0.2-0.9-0.6-1.2-1.2c-0.2-0.6-0.5-1.1-1-1.5
		c-0.5-0.4-1-0.5-1.5-0.5c-0.5,0-1,0.3-1.6,0.8c-0.5,0.5-0.8,1.3-0.6,2.2s0.5,1.9,1.1,2.8c0.6,0.9,1.5,1.8,2.5,2.7s2.3,1.4,3.8,1.7
		L32.1,16.5z M38.3,57.9c-0.9-0.2-1.8-0.7-2.6-1.6c-0.8-0.9-1.2-1.9-1.2-3c0-1.1,0.5-2.1,1.5-3c1-0.9,2.2-1.3,3.5-1.2
		c1.4,0.1,2.4,0.7,3,1.6c0.6,1,0.8,2.1,0.6,3.3c-0.2,1.2-0.8,2.1-1.6,2.6C40.7,57.3,39.6,57.7,38.3,57.9z"/>
</g>
<g>
</g>
<g>
</g>
<g>
</g>
<g>
</g>
<g>
</g>
<g>
</g>
<g>
</g>
<g>
</g>
<g>
</g>
<g>
</g>
<g>
</g>
<g>
</g>
<g>
</g>
<g>
</g>
<g>
</g>
</svg>
